<?xml version="1.0" ?><svg id="Lineal" viewBox="0 0 512 512" xmlns="http://www.w3.org/2000/svg"><title/><g data-name="39. Quarantine Tape" id="_39._Quarantine_Tape"><path d="M18.44,122.37a8,8,0,0,1,11.31-11.32l84.17,84.17,34.3-128.63-37-37a8,8,0,1,1,11.32-11.32c43.58,43.59,41.7,41,42.41,44.22.59,2.72,2.74-6.81-38,145.8l16.48,16.48a8,8,0,1,1-11.31,11.31L114.27,218.2a8,8,0,0,1-3.39-3.4Zm199.63,14.06a8,8,0,1,0,11.31-11.31L198.63,94.37a8,8,0,0,0-11.31,11.31ZM382.63,278.37a8,8,0,0,0-11.31,11.31l31.5,31.5L376,421.63a8,8,0,1,0,15.46,4.12l24.4-91.49,66.45,66.45a8,8,0,0,0,11.32-11.31ZM312.55,393.85l11.68-43.79a8,8,0,1,0-15.46-4.12l-9.29,34.84L290,371.32a8,8,0,0,0-11.32,11.31l17.74,17.73a7.86,7.86,0,0,0,3.4,3.4l89.72,89.73a8,8,0,0,0,11.32-11.31ZM163.9,429.49l-52.68,52.69a8,8,0,0,0,11.32,11.31l52.68-52.68a8,8,0,1,0-11.32-11.32Zm54.42-31.79a8,8,0,0,1-9.11,4l-142.46-38-37,37A8,8,0,0,1,18.44,389.4L389.56,18.27a8,8,0,1,1,11.32,11.32L334.42,96l79.33,21.15a8,8,0,0,1-2.06,15.74c-1.55,0,4.49,1.47-90.34-23.82l-56,56L394,199.38l88.32-88.33a8,8,0,0,1,11.32,11.32l-89.78,89.77a7.9,7.9,0,0,1-3.36,3.36L287.36,328.67A8,8,0,0,1,284,332ZM79.82,350.64l128.64,34.3,56-56L167.5,303.13a8,8,0,1,1,4.12-15.46L277.49,315.9,380.94,212.45l-128.63-34.3Z"/></g></svg>